<svg xmlns="http://www.w3.org/2000/svg" xmlns:xlink="http://www.w3.org/1999/xlink" width="756.86" height="192.65" viewBox="0 0 756.86 192.65"><defs><style>.cls-1,.cls-6{fill:none;}.cls-2{fill:#c0daff;}.cls-3,.cls-5{fill:#0e3ca5;}.cls-4{fill:#5493f7;}.cls-5{opacity:0.5;}.cls-6{stroke:#fff;stroke-miterlimit:10;}.cls-7{isolation:isolate;}.cls-8{clip-path:url(#clip-path);}.cls-9{fill:#0a2970;}.cls-10{fill:#3977d1;}.cls-11{clip-path:url(#clip-path-2);}.cls-12{fill:#09286d;}.cls-13{fill:#fff;}.cls-14{clip-path:url(#clip-path-3);}.cls-15{fill:#3964a8;}.cls-16{fill:#3761a3;}.cls-17{fill:#365e9e;}.cls-18{fill:#345b99;}.cls-19{clip-path:url(#clip-path-4);}.cls-20{fill:#09266a;}.cls-21{fill:#092566;}.cls-22{fill:#082463;}.cls-23{fill:#082360;}.cls-24{fill:#08225c;}.cls-25{clip-path:url(#clip-path-5);}.cls-26{clip-path:url(#clip-path-6);}.cls-27{fill:#082059;}.cls-28{fill:#071f56;}</style><clipPath id="clip-path"><path class="cls-1" d="M89.15,93l.34-.18,1.16.49-.34.18-.14-.06L90,93.4l-.15-.06-.15-.06-.15-.07-.15-.06-.15-.06Z"/></clipPath><clipPath id="clip-path-2"><path class="cls-1" d="M75.05,95.56c2.6-.15,10.43-.74,14.1-2.53l1.16.49c-3.67,1.79-11.5,2.38-14.1,2.53Z"/></clipPath><clipPath id="clip-path-3"><path class="cls-1" d="M79.34,72.9l-1.16-.49a6.23,6.23,0,0,1,3.5-.77,1.09,1.09,0,0,1,.24.07l1.17.49a1.09,1.09,0,0,0-.24-.07A6.25,6.25,0,0,0,79.34,72.9Z"/></clipPath><clipPath id="clip-path-4"><path class="cls-1" d="M61.42,86.44a19.75,19.75,0,0,0,4.1-6.5l1.16.49a19.59,19.59,0,0,1-4.1,6.5Z"/></clipPath><clipPath id="clip-path-5"><path class="cls-2" d="M63.15,87.67a4.41,4.41,0,0,1-1.73-1.23l1.16.49a4.38,4.38,0,0,0,1.74,1.23Z"/></clipPath><clipPath id="clip-path-6"><path class="cls-1" d="M65.52,79.94s.64-2.14-.4-2.58l1.16.49c1,.44.41,2.55.4,2.58Z"/></clipPath></defs><g id="Layer_2" data-name="Layer 2"><g id="Layer_1-2" data-name="Layer 1"><path class="cls-3" d="M177.39,131.52,71.71,192.22a3.27,3.27,0,0,1-3.26,0L3.53,154.91a1.35,1.35,0,0,1-.69-1.18v-2.9L111.07,91.08l66.78,36.25v3.39A.94.94,0,0,1,177.39,131.52Z"/><path class="cls-3" d="M106.37.18,1.22,60.58A2.4,2.4,0,0,0,0,62.68v84.67a1.36,1.36,0,0,0,.63,1.15l2.21,1.42,105.39-64L110.42,2l-2.6-1.8A1.36,1.36,0,0,0,106.37.18Z"/><path class="cls-4" d="M109.15,2,4.06,62.4a2.44,2.44,0,0,0-1.22,2.1v85.42L111.07,87.76V3.15A1.28,1.28,0,0,0,109.15,2Z"/><path class="cls-4" d="M177.62,126.91,111.07,88.67,2.84,150.83l65.61,37.7a3.27,3.27,0,0,0,3.26,0l39.42-22.65v.77a.45.45,0,0,0,.67.38l23.6-13.55a.92.92,0,0,0,.46-.79v-1l41.76-24A.44.44,0,0,0,177.62,126.91Z"/><polygon class="cls-3" points="5.17 148.59 108.75 89.09 108.75 6.83 5.17 66.32 5.17 148.59"/><polygon class="cls-5" points="107.47 134.34 78 151.5 47.16 133.86 78 116.7 107.47 134.34"/><polygon class="cls-6" points="104.06 76.5 104.06 112.94 74.59 130.1 43.75 112.46 43.75 76.03 74.59 58.86 104.06 76.5"/><polyline class="cls-6" points="43.75 112.46 74.59 95.3 104.06 112.94"/><line class="cls-6" x1="74.59" y1="58.86" x2="74.59" y2="93.67"/><g class="cls-7"><g class="cls-8"><g class="cls-7"><path class="cls-9" d="M78.76,95.87l-1.17-.49c3.47-.31,8.74-1,11.56-2.35l.34-.18,1.16.49-.34.18c-2.82,1.37-8.08,2-11.55,2.35"/></g></g></g><path class="cls-4" d="M91.34,94.73c.17-.09.27,0,.21.22a28.88,28.88,0,0,1-5.61,11.27,4.16,4.16,0,0,1-1.27,1,1.08,1.08,0,0,1-1.75-1.11c.17-3,4.82-8.26,7.25-10.46a9.42,9.42,0,0,1,1.13-.91Z"/><path class="cls-10" d="M91.49,94.71h0l-1.16-.49h-.07l-.09,0,0,0a2.52,2.52,0,0,0-.27.18l-.1.08-.25.2-.07,0,0,0-.4.35-.53.49-.18.18-.39.39-.23.23-.38.4-.25.26-.39.43-.16.17-.1.12-.32.36-.28.33-.32.39c-.1.11-.19.22-.28.34l-.31.39-.28.35c-.1.13-.2.26-.29.4l-.21.27,0,.08c-.15.2-.29.41-.43.62l-.12.18c-.18.27-.35.54-.5.8l0,0c-.12.21-.24.41-.34.61l-.08.16c-.06.1-.11.21-.16.31l0,.12c-.07.15-.13.29-.19.44a1.76,1.76,0,0,1-.09.2s0,.06,0,.1-.06.18-.09.27a2.25,2.25,0,0,0-.08.24s0,.07,0,.11,0,.16-.05.24,0,.13,0,.2a2.11,2.11,0,0,0,0,.25,1.27,1.27,0,0,0,.35,1.14.76.76,0,0,0,.19.12l1.17.49a.82.82,0,0,1-.2-.12,1.3,1.3,0,0,1-.35-1.14c0-.14,0-.3.06-.45s0-.16,0-.24a3.57,3.57,0,0,1,.1-.35c0-.09.05-.18.09-.28s.07-.19.11-.29.12-.29.19-.44l.21-.43c0-.06,0-.11.08-.16.11-.21.23-.43.36-.64s.32-.53.5-.8l.12-.18.43-.63.26-.34c.1-.13.19-.27.3-.4l.27-.35.31-.39.28-.35c.11-.12.21-.25.32-.38l.28-.33.32-.36.26-.29c.13-.15.27-.29.4-.43l.24-.26.39-.4.22-.23.39-.39.19-.18.52-.49.4-.35.11-.09.26-.2.09-.08.27-.19h0a.16.16,0,0,1,.09,0Z"/><g class="cls-7"><g class="cls-11"><g class="cls-7"><path class="cls-12" d="M76.21,96.05l-1.16-.49c.6,0,1.49-.09,2.54-.18l1.17.49c-1.06.09-1.94.15-2.55.18"/><path class="cls-9" d="M78.76,95.87l-1.17-.49c3.47-.31,8.74-1,11.56-2.35l.34-.18,1.16.49-.34.18c-2.82,1.37-8.08,2-11.55,2.35"/></g></g></g><path class="cls-13" d="M76.21,96.05c2.6-.15,10.43-.74,14.1-2.53l.34-.18a19.59,19.59,0,0,1-.47,2.3c-2.44,2.21-7.09,7.46-7.26,10.47a1.3,1.3,0,0,0,.35,1.14,15,15,0,0,1-1.66,1.43l-.1.06c-1.77.86-5.66-.54-7.35-4C72.91,102.2,74.13,99,76.21,96.05Z"/><path class="cls-2" d="M78.13,108.51h0a4.25,4.25,0,0,1-.43-.21l-.14-.06-.31-.18c-.08,0-.17-.09-.25-.15a8,8,0,0,1-2.18-2.07,6.68,6.68,0,0,1-.66-1.1,3.77,3.77,0,0,1-.26-.66.75.75,0,0,1-.05-.16,5.15,5.15,0,0,1-.15-.68v0a5,5,0,0,1,0-.67v-.18c0-.24,0-.47,0-.71a.11.11,0,0,0,0-.05,8.33,8.33,0,0,1,.17-.84l0-.12a8.45,8.45,0,0,1,.26-.81l.06-.16c.11-.3.24-.6.38-.91a2.12,2.12,0,0,1,.11-.21l.18-.37.13-.25.21-.36c0-.08.09-.16.14-.24l.27-.45.13-.2.42-.63-1.16-.49q-.22.31-.42.63l-.13.2-.27.45-.07.11-.08.13c-.06.12-.13.24-.2.36l-.13.25c-.07.12-.13.24-.19.36a.89.89,0,0,1-.08.17s0,0,0,0c-.15.31-.27.61-.39.91l0,.08,0,.08c-.09.27-.18.54-.25.81l0,0s0,0,0,.07a8.33,8.33,0,0,0-.17.84s0,0,0,0v0a5.78,5.78,0,0,0,0,.71v.18a5,5,0,0,0,0,.67v0a3.93,3.93,0,0,0,.15.68,1.09,1.09,0,0,0,0,.17,5.12,5.12,0,0,0,.25.65,8.43,8.43,0,0,0,.66,1.1l.23.3A7.89,7.89,0,0,0,77,108l1.08.45.08,0Z"/><g class="cls-7"><g class="cls-14"><g class="cls-7"><path class="cls-15" d="M79.34,72.9l-1.16-.49a8.11,8.11,0,0,1,2.59-.82l1.17.49a8.1,8.1,0,0,0-2.6.82"/><path class="cls-16" d="M81.94,72.08l-1.17-.49a3.53,3.53,0,0,1,.65,0l1.17.49a3.53,3.53,0,0,0-.65,0"/><path class="cls-17" d="M82.59,72.08l-1.17-.49.26,0,.12,0,1.17.49a.53.53,0,0,0-.12,0l-.26,0"/><path class="cls-18" d="M83,72.16l-1.17-.49.12,0,1.17.49-.12,0"/></g></g></g><path class="cls-10" d="M65.57,91.79a3.87,3.87,0,0,1-.17-.69l0-.22c0-.17,0-.34,0-.52v-.25a5.4,5.4,0,0,1,0-.56c0-.07,0-.13,0-.2a7.9,7.9,0,0,1,.14-.8l.09-.34c.08-.29.17-.58.28-.88a1.17,1.17,0,0,0,0-.11c.12-.34.27-.68.43-1,0-.07.07-.13.1-.19s.14-.3.22-.44.09-.16.13-.25l.23-.4a2.53,2.53,0,0,1,.13-.22c.16-.27.33-.54.5-.81l0-.06q.25-.39.54-.78l.11-.15c.32-.45.66-.89,1-1.33h0c.36-.44.73-.87,1.11-1.3l.11-.12c.3-.33.6-.66.91-1l.12-.13.94-.93L72.7,78c.31-.31.63-.6,1-.89l.12-.11c.32-.29.64-.56,1-.83L74.9,76l.37-.31.22-.17.4-.32.17-.13.56-.43.08-.05c.15-.12.31-.23.47-.34l.18-.13.35-.24.19-.13.33-.21.18-.11.34-.2.15-.09.45-.25-1.16-.49-.46.25-.15.09-.33.2-.18.12a3,3,0,0,0-.33.21l-.19.12-.35.24-.19.13-.46.34-.08,0-.56.43-.18.13-.39.32-.22.18-.37.3-.12.1-.06,0c-.32.27-.63.54-1,.83l-.13.11-.94.89-.13.12c-.32.31-.63.62-.94.94l-.12.12c-.31.32-.61.65-.91,1l-.07.08,0,0c-.38.43-.75.86-1.11,1.3h0c-.35.44-.69.88-1,1.33a.1.1,0,0,0,0,0l-.08.1-.53.78,0,.06c-.18.27-.34.54-.51.81l-.06.1a.75.75,0,0,1-.07.12c-.07.14-.15.27-.22.4l-.13.25-.23.43a1.3,1.3,0,0,1-.08.17v0c-.16.34-.31.68-.44,1l0,.08s0,0,0,0c-.11.29-.2.58-.28.87l0,.09-.06.25c-.06.25-.1.5-.14.74v.06c0,.07,0,.13,0,.2a5.4,5.4,0,0,0,0,.56v.25c0,.18,0,.35,0,.52l0,.22a3.87,3.87,0,0,0,.17.69,5.44,5.44,0,0,0,3.3,3.28l1.16.49A5.44,5.44,0,0,1,65.57,91.79Z"/><path class="cls-4" d="M79.34,72.9a6.25,6.25,0,0,1,3.51-.77,1.09,1.09,0,0,1,.24.07c4.35,1.83,7.69,6,8.84,11.94A24.58,24.58,0,0,1,92.12,92a3.21,3.21,0,0,1-1.47,1.35l-.34.18c-3.67,1.79-11.5,2.38-14.1,2.53l-.85,0c-2.08,0-8.4-.06-9.79-4.3a6,6,0,0,1,0-3.24C66.91,82.6,75.1,75.12,79.34,72.9Z"/><g class="cls-7"><g class="cls-19"><g class="cls-7"><path class="cls-20" d="M62.58,86.93l-1.16-.49a27.92,27.92,0,0,0,1.86-2.33l1.17.49c-.58.81-1.22,1.59-1.87,2.33"/><path class="cls-21" d="M64.45,84.6l-1.17-.49c.39-.54.76-1.08,1.08-1.63l1.16.49c-.32.54-.68,1.09-1.07,1.63"/><path class="cls-22" d="M65.52,83l-1.16-.49A13.23,13.23,0,0,0,65,81.31l1.16.49A13.23,13.23,0,0,1,65.52,83"/><path class="cls-23" d="M66.14,81.8,65,81.31c.14-.3.27-.6.38-.9l1.16.49a8.64,8.64,0,0,1-.38.9"/><path class="cls-24" d="M66.52,80.9l-1.16-.49c.06-.16.11-.31.16-.47l1.16.49c0,.15-.1.31-.16.47"/></g></g></g><path class="cls-2" d="M63.15,87.67a4.41,4.41,0,0,1-1.73-1.23l1.16.49a4.38,4.38,0,0,0,1.74,1.23Z"/><g class="cls-25"><g class="cls-7"><path class="cls-2" d="M64.32,88.16l-1.17-.49a4.41,4.41,0,0,1-1.73-1.23l1.16.49a4.38,4.38,0,0,0,1.74,1.23"/></g></g><g class="cls-7"><g class="cls-26"><g class="cls-7"><path class="cls-27" d="M66.68,80.43l-1.16-.49v0l1.16.49v0"/><path class="cls-24" d="M66.69,80.41l-1.16-.49v0l1.16.49v0"/><path class="cls-27" d="M66.7,80.36l-1.16-.49a6.11,6.11,0,0,0,.13-.67l1.17.49c0,.3-.11.55-.14.67"/><path class="cls-28" d="M66.84,79.69l-1.17-.49c.09-.66.09-1.57-.55-1.84l1.16.49c.64.27.65,1.18.56,1.84"/></g></g></g><path class="cls-13" d="M71.54,73a14.2,14.2,0,0,1,11.31-.88,6.25,6.25,0,0,0-3.51.77c-4.24,2.22-12.43,9.7-13.82,15.65a5.32,5.32,0,0,1-2.94-1.62,19.59,19.59,0,0,0,4.1-6.5s1-3.34-1.54-2.53A21.53,21.53,0,0,1,71.54,73Z"/><path class="cls-2" d="M72.28,72.68l.23-.1.49-.2.3-.11.43-.15L74,72l.42-.12.32-.09.4-.1.32-.07.39-.07.33-.06.38-.05.33,0,.33,0c.41,0,.81,0,1.22,0h.17c.4,0,.79,0,1.18.08l.19,0c.32,0,.62.09.93.15l.13,0c.27.06.54.12.82.2l.19.06a6.75,6.75,0,0,1,.76.25l-1.17-.49a6.59,6.59,0,0,0-.75-.25l-.08,0-.12,0c-.27-.08-.54-.14-.82-.2l-.12,0q-.47-.09-.93-.15h-.19c-.39,0-.78-.07-1.18-.08h-.18c-.4,0-.8,0-1.21.05H76l-.26,0-.33,0-.38,0-.33.06-.39.07-.33.07-.4.1-.32.09-.41.12-.31.1-.44.15-.29.11-.49.2-.24.1-.73.33c-.34.17-.67.35-1,.53l-.31.19-.68.41-.34.22-.64.46-.3.22c-.28.2-.54.42-.81.64a.27.27,0,0,0-.08.07h0c-.35.3-.69.61-1,.92l-.25.24c-.32.32-.65.65-1,1l.87.37.29.12c.31-.34.64-.67,1-1l.24-.24c.33-.31.67-.62,1-.92l.09-.07c.27-.22.54-.44.81-.64l.3-.22c.21-.16.43-.31.65-.46l.33-.22.68-.41.31-.19c.33-.18.66-.36,1-.53h0C71.79,72.89,72,72.78,72.28,72.68Z"/><path class="cls-4" d="M56.79,93.81c1.63,1.28,3.42,2.28,5,3.59s3.73,3.42,4.18,3.89a16.07,16.07,0,0,1,4,6.29,31.94,31.94,0,0,1,1,6.28l-.11.06a3,3,0,0,1-1.68.09,13.82,13.82,0,0,1-1.91-.41,12.56,12.56,0,0,1-2.41-1,14.08,14.08,0,0,1-2.19-1.45,14.88,14.88,0,0,1-1.92-1.89,16.93,16.93,0,0,1-2.85-5,20.55,20.55,0,0,1-.85-3.09,23,23,0,0,1-.39-3.31,26.92,26.92,0,0,1,.07-3.36C56.74,94.26,56.77,94,56.79,93.81Z"/><path class="cls-10" d="M62.66,111.17a14.88,14.88,0,0,1-1.92-1.89,16.93,16.93,0,0,1-2.85-5,20.55,20.55,0,0,1-.85-3.09,23,23,0,0,1-.39-3.31,26.92,26.92,0,0,1,.07-3.36c0-.23.05-.45.07-.68l-1.16-.49c0,.23-.05.45-.07.68a25.13,25.13,0,0,0-.07,3.36,23,23,0,0,0,.39,3.31,20.55,20.55,0,0,0,.85,3.09A17.71,17.71,0,0,0,58,106.47a16.44,16.44,0,0,0,1.61,2.32,14.27,14.27,0,0,0,1.92,1.89,13,13,0,0,0,2.19,1.45c.34.18.68.34,1,.49l1.17.49c-.36-.15-.7-.31-1-.49A14.08,14.08,0,0,1,62.66,111.17Z"/><path class="cls-10" d="M57.23,91.14c.11-.49.24-1,.37-1.49,0-.11.07-.22.1-.33.14-.49.29-1,.45-1.45s.32-.88.5-1.31l.15-.39c.21-.49.42-1,.65-1.45s.46-.91.7-1.35c.06-.12.13-.24.2-.36q.36-.65.75-1.26c.38-.59.77-1.16,1.19-1.72a4.47,4.47,0,0,1,.34-.4,2.61,2.61,0,0,1,.23-.24l.11-.12.28-.25.06,0,.37-.29.11-.08.22-.15.11-.07.19-.11.07,0,.18-.1a5.77,5.77,0,0,1,.58-.23l.33-.08.09,0,.18,0h.36l.18,0-1.16-.49-.11,0-.07,0h-.42l-.12,0-.09,0-.33.08c-.18.06-.37.14-.58.23l-.18.1-.08,0L63,77.9l-.11.06-.22.15-.11.08-.37.29h0l-.12.1-.22.2-.15.15-.19.21h0c-.11.13-.22.26-.33.41L60.8,80c-.3.42-.58.85-.86,1.28-.18.28-.35.57-.52.85l-.23.41c-.07.12-.14.24-.2.36-.25.45-.48.89-.7,1.35l0,.09c-.21.44-.41.9-.6,1.36,0,.13-.1.26-.16.4l-.28.7-.21.6c-.17.47-.31,1-.45,1.45,0,.11-.07.22-.1.33l-.09.32c-.1.39-.2.78-.28,1.18A1.86,1.86,0,0,0,56,91v.07l1.16.49C57.18,91.42,57.2,91.28,57.23,91.14Z"/><path class="cls-4" d="M64.56,78.13a5.77,5.77,0,0,1,.58-.23c2.53-.81,1.55,2.49,1.54,2.53a19.59,19.59,0,0,1-4.1,6.5,22.84,22.84,0,0,1-5.08,4.51,1.07,1.07,0,0,1-.34.12c0-.14,0-.28.07-.42a29.06,29.06,0,0,1,2.22-6.42,27.73,27.73,0,0,1,1.65-3c.38-.59.77-1.16,1.19-1.72A6.9,6.9,0,0,1,64.56,78.13Z"/><line class="cls-6" x1="74.59" y1="93.67" x2="74.59" y2="130.1"/><polyline class="cls-6" points="104.06 76.5 74.59 93.67 43.75 76.03"/><path class="cls-3" d="M219.51,65.16h8.69v69h43.34v8h-52Z"/><path class="cls-3" d="M279.35,114v-.22a29.65,29.65,0,0,1,59.29-.22v.22a29.53,29.53,0,0,1-29.81,29.7A29.13,29.13,0,0,1,279.35,114Zm50.6,0v-.22c0-12.21-9.13-22.22-21.12-22.22-12.32,0-20.79,10-20.79,22v.22c0,12.21,9,22.11,21,22.11C321.37,135.89,330,126,330,114Z"/><path class="cls-3" d="M348.21,114v-.22c0-16.06,12.54-29.7,29.15-29.7,10.78,0,17.49,4.51,22.77,10.12l-5.61,5.94c-4.51-4.73-9.57-8.58-17.27-8.58-11.55,0-20.35,9.79-20.35,22v.22c0,12.32,9,22.11,20.9,22.11,7.26,0,12.87-3.63,17.38-8.47l5.39,5.06c-5.72,6.38-12.54,11-23.21,11A29.2,29.2,0,0,1,348.21,114Z"/><path class="cls-3" d="M408.05,125.66v-.22c0-12,9.9-18.37,24.31-18.37a60.38,60.38,0,0,1,17.49,2.42v-2c0-10.23-6.27-15.51-16.94-15.51-6.71,0-12,1.76-17.27,4.18l-2.53-6.93a47,47,0,0,1,20.68-4.73c8,0,14.19,2.09,18.37,6.27C456,94.64,458,100.14,458,107.4v34.76h-8.14v-8.58c-4,5.17-10.56,9.79-20.57,9.79C418.72,143.37,408.05,137.32,408.05,125.66Zm41.91-4.4v-5.5a59.32,59.32,0,0,0-16.72-2.42c-10.67,0-16.61,4.62-16.61,11.77v.22c0,7.15,6.6,11.33,14.3,11.33C441.38,136.66,450,130.28,450,121.26Z"/><path class="cls-3" d="M474.6,61.86h8.47v80.3H474.6Z"/><path class="cls-3" d="M518.27,80.78H494.84V65.16h63.8V80.78H535.21v61.38H518.27Z"/><path class="cls-3" d="M553.25,113v-.22c0-16.83,12-30.69,29.15-30.69,19.69,0,28.71,15.29,28.71,32,0,1.32-.11,2.86-.22,4.4h-41c1.65,7.59,6.93,11.55,14.41,11.55,5.61,0,9.68-1.76,14.3-6l9.57,8.47c-5.5,6.82-13.42,11-24.09,11C566.34,143.48,553.25,131.05,553.25,113Zm41.58-5c-1-7.48-5.39-12.54-12.43-12.54s-11.44,5-12.76,12.54Z"/><path class="cls-3" d="M621.34,83.2h16.72V95.08c3.41-8.14,8.91-13.42,18.81-13V99.59H656c-11.11,0-17.93,6.71-17.93,20.79v21.78H621.34Z"/><path class="cls-3" d="M665.12,83.2h16.72V95.08c3.41-8.14,8.91-13.42,18.81-13V99.59h-.88c-11.11,0-17.93,6.71-17.93,20.79v21.78H665.12Z"/><path class="cls-3" d="M702.63,125.22V125c0-12.87,9.79-18.81,23.76-18.81a41.9,41.9,0,0,1,14.41,2.42v-1c0-6.93-4.29-10.78-12.65-10.78A43.37,43.37,0,0,0,711.87,100l-4.18-12.76a52,52,0,0,1,22.88-4.73c9.13,0,15.73,2.42,19.91,6.6,4.4,4.4,6.38,10.89,6.38,18.81v34.21H740.69v-6.38c-4.07,4.51-9.68,7.48-17.82,7.48C711.76,143.26,702.63,136.88,702.63,125.22ZM741,121.37v-3a25.93,25.93,0,0,0-10.67-2.2c-7.15,0-11.55,2.86-11.55,8.14v.22c0,4.51,3.74,7.15,9.13,7.15C735.74,131.71,741,127.42,741,121.37Z"/></g></g></svg>